<svg width="347" height="491" viewBox="0 0 347 491" fill="none" xmlns="http://www.w3.org/2000/svg">
<path d="M171.939 420.061C172.525 420.646 173.475 420.646 174.061 420.061L183.607 410.515C184.192 409.929 184.192 408.979 183.607 408.393C183.021 407.808 182.071 407.808 181.485 408.393L173 416.879L164.515 408.393C163.929 407.808 162.979 407.808 162.393 408.393C161.808 408.979 161.808 409.929 162.393 410.515L171.939 420.061ZM173 0L171.5 6.55671e-08L171.5 419L173 419L174.5 419L174.5 -6.55671e-08L173 0Z" fill="black"/>
<circle cx="173.5" cy="317.5" r="172" stroke="black" stroke-width="3"/>
</svg>
