<svg width="124" height="207" viewBox="0 0 124 207" fill="none" xmlns="http://www.w3.org/2000/svg">
<path d="M63 1L63 4.37114e-08L61 -4.37114e-08L61 1L63 1ZM61.2929 181.707C61.6834 182.098 62.3166 182.098 62.7071 181.707L69.0711 175.343C69.4616 174.953 69.4616 174.319 69.0711 173.929C68.6805 173.538 68.0474 173.538 67.6568 173.929L62 179.586L56.3431 173.929C55.9526 173.538 55.3194 173.538 54.9289 173.929C54.5384 174.319 54.5384 174.953 54.9289 175.343L61.2929 181.707ZM61 1L61 181L63 181L63 1L61 1Z" fill="black"/>
<circle cx="62" cy="145" r="61" stroke="#190B0B" stroke-width="2"/>
</svg>
