<svg width="144" height="204" viewBox="0 0 144 204" fill="none" xmlns="http://www.w3.org/2000/svg">
<path d="M70.7318 174.94C71.3176 175.525 72.2674 175.525 72.8531 174.94L82.3991 165.394C82.9849 164.808 82.9849 163.858 82.3991 163.272C81.8133 162.687 80.8636 162.687 80.2778 163.272L71.7925 171.758L63.3072 163.272C62.7214 162.687 61.7717 162.687 61.1859 163.272C60.6001 163.858 60.6001 164.808 61.1859 165.394L70.7318 174.94ZM71.7925 0L70.2925 6.55671e-08L70.2925 173.879L71.7925 173.879L73.2925 173.879L73.2925 -6.55671e-08L71.7925 0Z" fill="black"/>
<path d="M72 61.2579C110.936 61.2579 142.5 92.8219 142.5 131.758C142.5 170.694 110.936 202.258 72 202.258C33.0639 202.258 1.5 170.694 1.5 131.758C1.50001 92.8219 33.0639 61.2579 72 61.2579Z" stroke="black" stroke-width="3"/>
</svg>
