<svg width="144" height="223" viewBox="0 0 144 223" fill="none" xmlns="http://www.w3.org/2000/svg">
<path d="M70.9393 174.94C71.5251 175.525 72.4749 175.525 73.0607 174.94L82.6066 165.394C83.1924 164.808 83.1924 163.858 82.6066 163.272C82.0208 162.687 81.0711 162.687 80.4853 163.272L72 171.758L63.5147 163.272C62.9289 162.687 61.9792 162.687 61.3934 163.272C60.8076 163.858 60.8076 164.808 61.3934 165.394L70.9393 174.94ZM72 0L70.5 6.55671e-08L70.5 173.879L72 173.879L73.5 173.879L73.5 -6.55671e-08L72 0Z" fill="#190B0B"/>
<path d="M72 80.2579C110.936 80.2579 142.5 111.822 142.5 150.758C142.5 189.694 110.936 221.258 72 221.258C33.0639 221.258 1.5 189.694 1.5 150.758C1.50001 111.822 33.0639 80.2579 72 80.2579Z" stroke="#190B0B" stroke-width="3"/>
</svg>
